<svg id="레이어_1" data-name="레이어 1" xmlns="http://www.w3.org/2000/svg" viewBox="0 0 1644.97 1624.93">
  <defs>
    <style>
      .cls-1, .cls-5, .cls-6 {
        font-size: 230px;
        font-family: NotoSansKR-Black-KSCpc-EUC-H, Noto Sans KR;
      }

      .cls-1 {
        fill: none;
      }

      .cls-1, .cls-4, .cls-6 {
        stroke: #d1202f;
        stroke-miterlimit: 10;
        stroke-width: 2px;
      }

      .cls-2 {
        letter-spacing: -0.02em;
      }

      .cls-3, .cls-5 {
        fill: #d1202f;
      }

      .cls-4, .cls-6 {
        fill: #fcbe44;
      }
    </style>
  </defs>
  <text class="cls-1" transform="translate(1 1020.58)">BU<tspan class="cls-2" x="335.33" y="0">R</tspan><tspan x="493.12" y="0">T’S</tspan></text>
  <text class="cls-1" transform="translate(1047.36 1020.58)">BEES</text>
  <g>
    <g>
      <path class="cls-3" d="M242.12,451.48h59.8c35.42,0,63.71,9.66,63.71,42.55,0,15.18-8.51,31.74-22.31,37V532c17.25,4.6,30.36,17.48,30.36,40.25,0,35-29.67,50.59-66.93,50.59H242.12Zm58.19,68.08c17.48,0,25.3-7.59,25.3-19.32,0-12.19-8.05-17.25-25.3-17.25h-17v36.57Zm3.45,71.76c19.78,0,29.9-7.13,29.9-21.85,0-14-9.89-19.78-29.9-19.78H283.29v41.63Z" transform="translate(-153.34 -427.25)"/>
      <path class="cls-3" d="M401.05,542.33V451.48H442V546.7c0,32.43,9.66,43.93,28.52,43.93,18.63,0,29-11.5,29-43.93V451.48h39.56v90.85c0,57.73-23,83.71-68.54,83.71C424.74,626,401.05,600.06,401.05,542.33Z" transform="translate(-153.34 -427.25)"/>
      <path class="cls-3" d="M577.46,451.48h62.79c36.57,0,66.92,12.65,66.92,54,0,25.07-11.72,41.17-29.43,49.45l38.18,67.84h-46l-31.51-60.25H618.63v60.25H577.46ZM637,530.14c19.55,0,30.13-8.51,30.13-24.61S656.58,484.14,637,484.14h-18.4v46Z" transform="translate(-153.34 -427.25)"/>
      <path class="cls-3" d="M768.36,485.75H722.13V451.48H856v34.27H809.53V622.82H768.36Z" transform="translate(-153.34 -427.25)"/>
      <path class="cls-3" d="M881.52,515.19c16.33-7.82,24.38-17.94,24.38-33.35a9.43,9.43,0,0,1-2.53.23c-11.73,0-21.16-7.82-21.16-20.24,0-13.57,9-22.08,21.16-22.08,17,0,25.76,13.11,25.76,35.42,0,25.3-12.65,45.08-38.64,57.73Z" transform="translate(-153.34 -427.25)"/>
      <path class="cls-3" d="M952.36,601.44l23.46-28.29c12,10.35,27.83,17.48,41.4,17.48,15.18,0,22.31-5.75,22.31-15,0-9.89-9.43-13.11-24.15-19.32l-21.85-9.2c-17.94-7.13-34.73-22.08-34.73-46.92,0-28.75,25.76-51.75,62.1-51.75,19.78,0,40.71,7.59,55.65,22.54l-20.46,25.76c-11.27-8.51-21.85-13.11-35.19-13.11-12.65,0-20.24,5.06-20.24,14,0,9.66,10.58,13.34,25.76,19.32l21.39,8.51c21.15,8.51,33.81,22.77,33.81,46.92,0,28.52-23.92,53.58-65.32,53.58C994,626,970.07,617.76,952.36,601.44Z" transform="translate(-153.34 -427.25)"/>
    </g>
    <g>
      <path class="cls-4" d="M232.12,440h59.8c35.42,0,63.71,9.66,63.71,42.55,0,15.18-8.51,31.74-22.31,37v.92c17.25,4.6,30.36,17.48,30.36,40.25,0,35-29.67,50.59-66.93,50.59H232.12Zm58.19,68.08c17.48,0,25.3-7.59,25.3-19.32,0-12.19-8.05-17.25-25.3-17.25h-17v36.57Zm3.45,71.76c19.78,0,29.9-7.13,29.9-21.85,0-14-9.89-19.78-29.9-19.78H273.29v41.63Z" transform="translate(-153.34 -427.25)"/>
      <path class="cls-4" d="M391.05,530.83V440H432V535.2c0,32.43,9.66,43.93,28.52,43.93,18.63,0,29-11.5,29-43.93V440h39.56v90.85c0,57.73-23,83.71-68.54,83.71C414.74,614.54,391.05,588.56,391.05,530.83Z" transform="translate(-153.34 -427.25)"/>
      <path class="cls-4" d="M567.46,440h62.79c36.57,0,66.92,12.65,66.92,54,0,25.07-11.72,41.17-29.43,49.45l38.18,67.84h-46l-31.51-60.25H608.63v60.25H567.46ZM627,518.64c19.55,0,30.13-8.51,30.13-24.61S646.58,472.64,627,472.64h-18.4v46Z" transform="translate(-153.34 -427.25)"/>
      <path class="cls-4" d="M758.36,474.25H712.13V440H846v34.27H799.53V611.32H758.36Z" transform="translate(-153.34 -427.25)"/>
      <path class="cls-4" d="M871.52,503.69c16.33-7.82,24.38-17.94,24.38-33.35a9.43,9.43,0,0,1-2.53.23c-11.73,0-21.16-7.82-21.16-20.24,0-13.57,9-22.08,21.16-22.08,17,0,25.76,13.11,25.76,35.42,0,25.3-12.65,45.08-38.64,57.73Z" transform="translate(-153.34 -427.25)"/>
      <path class="cls-4" d="M942.36,589.94l23.46-28.29c12,10.35,27.83,17.48,41.4,17.48,15.18,0,22.31-5.75,22.31-15,0-9.89-9.43-13.11-24.15-19.32l-21.85-9.2c-17.94-7.13-34.73-22.08-34.73-46.92,0-28.75,25.76-51.75,62.1-51.75,19.78,0,40.71,7.59,55.65,22.54l-20.46,25.76c-11.27-8.51-21.85-13.11-35.19-13.11-12.65,0-20.24,5.06-20.24,14,0,9.66,10.58,13.34,25.76,19.32l21.39,8.51c21.15,8.51,33.81,22.77,33.81,46.92,0,28.52-23.92,53.58-65.32,53.58C984,614.54,960.07,606.26,942.36,589.94Z" transform="translate(-153.34 -427.25)"/>
    </g>
  </g>
  <g>
    <g>
      <path class="cls-3" d="M1203.48,451.48h59.8c35.42,0,63.71,9.66,63.71,42.55,0,15.18-8.51,31.74-22.31,37V532c17.25,4.6,30.36,17.48,30.36,40.25,0,35-29.67,50.59-66.93,50.59h-64.63Zm58.19,68.08c17.48,0,25.3-7.59,25.3-19.32,0-12.19-8-17.25-25.3-17.25h-17v36.57Zm3.45,71.76c19.78,0,29.9-7.13,29.9-21.85,0-14-9.89-19.78-29.9-19.78h-20.47v41.63Z" transform="translate(-153.34 -427.25)"/>
      <path class="cls-3" d="M1363.33,451.48h108.56v34.27H1404.5v31.74h57.27V552H1404.5v36.34h69.92v34.49H1363.33Z" transform="translate(-153.34 -427.25)"/>
      <path class="cls-3" d="M1508.23,451.48h108.56v34.27H1549.4v31.74h57.27V552H1549.4v36.34h69.91v34.49H1508.23Z" transform="translate(-153.34 -427.25)"/>
      <path class="cls-3" d="M1642.31,601.44l23.46-28.29c12,10.35,27.83,17.48,41.4,17.48,15.18,0,22.31-5.75,22.31-15,0-9.89-9.43-13.11-24.15-19.32l-21.85-9.2c-17.94-7.13-34.73-22.08-34.73-46.92,0-28.75,25.76-51.75,62.1-51.75,19.78,0,40.71,7.59,55.66,22.54L1746,496.79c-11.27-8.51-21.85-13.11-35.19-13.11-12.65,0-20.24,5.06-20.24,14,0,9.66,10.58,13.34,25.76,19.32l21.39,8.51c21.16,8.51,33.81,22.77,33.81,46.92,0,28.52-23.92,53.58-65.32,53.58C1683.94,626,1660,617.76,1642.31,601.44Z" transform="translate(-153.34 -427.25)"/>
    </g>
    <g>
      <path class="cls-4" d="M1193.48,440h59.8c35.42,0,63.71,9.66,63.71,42.55,0,15.18-8.51,31.74-22.31,37v.92c17.25,4.6,30.36,17.48,30.36,40.25,0,35-29.67,50.59-66.93,50.59h-64.63Zm58.19,68.08c17.48,0,25.3-7.59,25.3-19.32,0-12.19-8-17.25-25.3-17.25h-17v36.57Zm3.45,71.76c19.78,0,29.9-7.13,29.9-21.85,0-14-9.89-19.78-29.9-19.78h-20.47v41.63Z" transform="translate(-153.34 -427.25)"/>
      <path class="cls-4" d="M1353.33,440h108.56v34.27H1394.5V506h57.27v34.5H1394.5v36.34h69.92v34.49H1353.33Z" transform="translate(-153.34 -427.25)"/>
      <path class="cls-4" d="M1498.23,440h108.56v34.27H1539.4V506h57.27v34.5H1539.4v36.34h69.91v34.49H1498.23Z" transform="translate(-153.34 -427.25)"/>
      <path class="cls-4" d="M1632.31,589.94l23.46-28.29c12,10.35,27.83,17.48,41.4,17.48,15.18,0,22.31-5.75,22.31-15,0-9.89-9.43-13.11-24.15-19.32l-21.85-9.2c-17.94-7.13-34.73-22.08-34.73-46.92,0-28.75,25.76-51.75,62.1-51.75,19.78,0,40.71,7.59,55.66,22.54L1736,485.29c-11.27-8.51-21.85-13.11-35.19-13.11-12.65,0-20.24,5.06-20.24,14,0,9.66,10.58,13.34,25.76,19.32l21.39,8.51c21.16,8.51,33.81,22.77,33.81,46.92,0,28.52-23.92,53.58-65.32,53.58C1673.94,614.54,1650,606.26,1632.31,589.94Z" transform="translate(-153.34 -427.25)"/>
    </g>
  </g>
  <text class="cls-5" transform="translate(42 1384.58)">BU<tspan class="cls-2" x="335.33" y="0">R</tspan><tspan x="493.12" y="0">T’S</tspan></text>
  <text class="cls-5" transform="translate(1003.36 1378.58)">BEES</text>
  <text class="cls-6" transform="translate(33 1373.58)">BU<tspan class="cls-2" x="335.33" y="0">R</tspan><tspan x="493.12" y="0">T’S</tspan></text>
  <text class="cls-6" transform="translate(993.36 1368.58)">BEES</text>
</svg>
